<mxfile host="Electron" modified="2024-03-01T03:51:28.514Z" agent="Mozilla/5.0 (X11; Linux x86_64) AppleWebKit/537.36 (KHTML, like Gecko) draw.io/23.1.5 Chrome/120.0.6099.109 Electron/28.1.0 Safari/537.36" etag="Br8EXwdv5XK1ouK06SOx" version="23.1.5" type="device">
  <diagram id="C5RBs43oDa-KdzZeNtuy" name="Page-1">
    <mxGraphModel dx="1604" dy="843" grid="1" gridSize="10" guides="1" tooltips="1" connect="1" arrows="1" fold="1" page="1" pageScale="1" pageWidth="827" pageHeight="1169" math="0" shadow="0">
      <root>
        <mxCell id="WIyWlLk6GJQsqaUBKTNV-0" />
        <mxCell id="WIyWlLk6GJQsqaUBKTNV-1" parent="WIyWlLk6GJQsqaUBKTNV-0" />
        <mxCell id="_t1NfkofJrGaUivoqHSv-5" style="edgeStyle=orthogonalEdgeStyle;rounded=0;orthogonalLoop=1;jettySize=auto;html=1;exitX=0.5;exitY=1;exitDx=0;exitDy=0;entryX=0.5;entryY=0;entryDx=0;entryDy=0;" parent="WIyWlLk6GJQsqaUBKTNV-1" source="_t1NfkofJrGaUivoqHSv-0" target="_t1NfkofJrGaUivoqHSv-2" edge="1">
          <mxGeometry relative="1" as="geometry" />
        </mxCell>
        <mxCell id="_t1NfkofJrGaUivoqHSv-0" value="Start" style="rounded=1;whiteSpace=wrap;html=1;" parent="WIyWlLk6GJQsqaUBKTNV-1" vertex="1">
          <mxGeometry x="190" y="30" width="120" height="60" as="geometry" />
        </mxCell>
        <mxCell id="_t1NfkofJrGaUivoqHSv-8" style="edgeStyle=orthogonalEdgeStyle;rounded=0;orthogonalLoop=1;jettySize=auto;html=1;entryX=0.5;entryY=0;entryDx=0;entryDy=0;" parent="WIyWlLk6GJQsqaUBKTNV-1" source="_t1NfkofJrGaUivoqHSv-1" target="_t1NfkofJrGaUivoqHSv-7" edge="1">
          <mxGeometry relative="1" as="geometry" />
        </mxCell>
        <mxCell id="_t1NfkofJrGaUivoqHSv-15" style="edgeStyle=orthogonalEdgeStyle;rounded=0;orthogonalLoop=1;jettySize=auto;html=1;" parent="WIyWlLk6GJQsqaUBKTNV-1" source="_t1NfkofJrGaUivoqHSv-1" edge="1">
          <mxGeometry relative="1" as="geometry">
            <mxPoint x="360" y="320" as="targetPoint" />
          </mxGeometry>
        </mxCell>
        <mxCell id="_t1NfkofJrGaUivoqHSv-1" value="Is a on" style="rhombus;whiteSpace=wrap;html=1;" parent="WIyWlLk6GJQsqaUBKTNV-1" vertex="1">
          <mxGeometry x="190" y="210" width="120" height="110" as="geometry" />
        </mxCell>
        <mxCell id="_t1NfkofJrGaUivoqHSv-4" style="edgeStyle=orthogonalEdgeStyle;rounded=0;orthogonalLoop=1;jettySize=auto;html=1;exitX=1;exitY=0.5;exitDx=0;exitDy=0;" parent="WIyWlLk6GJQsqaUBKTNV-1" source="_t1NfkofJrGaUivoqHSv-2" target="_t1NfkofJrGaUivoqHSv-3" edge="1">
          <mxGeometry relative="1" as="geometry" />
        </mxCell>
        <mxCell id="_t1NfkofJrGaUivoqHSv-6" style="edgeStyle=orthogonalEdgeStyle;rounded=0;orthogonalLoop=1;jettySize=auto;html=1;" parent="WIyWlLk6GJQsqaUBKTNV-1" source="_t1NfkofJrGaUivoqHSv-2" edge="1">
          <mxGeometry relative="1" as="geometry">
            <mxPoint x="250" y="210" as="targetPoint" />
          </mxGeometry>
        </mxCell>
        <mxCell id="_t1NfkofJrGaUivoqHSv-2" value="a" style="shape=parallelogram;perimeter=parallelogramPerimeter;whiteSpace=wrap;html=1;fixedSize=1;" parent="WIyWlLk6GJQsqaUBKTNV-1" vertex="1">
          <mxGeometry x="190" y="130" width="120" height="40" as="geometry" />
        </mxCell>
        <mxCell id="hGA9iaLCLG296x1-T0DJ-2" style="edgeStyle=orthogonalEdgeStyle;rounded=0;orthogonalLoop=1;jettySize=auto;html=1;" edge="1" parent="WIyWlLk6GJQsqaUBKTNV-1" source="_t1NfkofJrGaUivoqHSv-3" target="hGA9iaLCLG296x1-T0DJ-1">
          <mxGeometry relative="1" as="geometry" />
        </mxCell>
        <mxCell id="_t1NfkofJrGaUivoqHSv-3" value="b" style="shape=parallelogram;perimeter=parallelogramPerimeter;whiteSpace=wrap;html=1;fixedSize=1;" parent="WIyWlLk6GJQsqaUBKTNV-1" vertex="1">
          <mxGeometry x="330" y="130" width="100" height="40" as="geometry" />
        </mxCell>
        <mxCell id="wd_kDftiUYhndAeXtYSq-45" style="edgeStyle=orthogonalEdgeStyle;rounded=0;orthogonalLoop=1;jettySize=auto;html=1;exitX=0.5;exitY=1;exitDx=0;exitDy=0;entryX=0.5;entryY=0;entryDx=0;entryDy=0;" parent="WIyWlLk6GJQsqaUBKTNV-1" source="_t1NfkofJrGaUivoqHSv-7" target="wd_kDftiUYhndAeXtYSq-43" edge="1">
          <mxGeometry relative="1" as="geometry" />
        </mxCell>
        <mxCell id="_t1NfkofJrGaUivoqHSv-7" value="is b on" style="rhombus;whiteSpace=wrap;html=1;" parent="WIyWlLk6GJQsqaUBKTNV-1" vertex="1">
          <mxGeometry x="140" y="390" width="120" height="120" as="geometry" />
        </mxCell>
        <mxCell id="_t1NfkofJrGaUivoqHSv-9" value="yes" style="text;html=1;align=center;verticalAlign=middle;resizable=0;points=[];autosize=1;strokeColor=none;fillColor=none;" parent="WIyWlLk6GJQsqaUBKTNV-1" vertex="1">
          <mxGeometry x="190" y="318" width="40" height="30" as="geometry" />
        </mxCell>
        <mxCell id="wd_kDftiUYhndAeXtYSq-20" style="edgeStyle=orthogonalEdgeStyle;rounded=0;orthogonalLoop=1;jettySize=auto;html=1;exitX=1;exitY=0.5;exitDx=0;exitDy=0;" parent="WIyWlLk6GJQsqaUBKTNV-1" source="_t1NfkofJrGaUivoqHSv-16" target="wd_kDftiUYhndAeXtYSq-19" edge="1">
          <mxGeometry relative="1" as="geometry" />
        </mxCell>
        <mxCell id="wd_kDftiUYhndAeXtYSq-31" style="edgeStyle=orthogonalEdgeStyle;rounded=0;orthogonalLoop=1;jettySize=auto;html=1;" parent="WIyWlLk6GJQsqaUBKTNV-1" source="_t1NfkofJrGaUivoqHSv-16" edge="1">
          <mxGeometry relative="1" as="geometry">
            <mxPoint x="414" y="450" as="targetPoint" />
          </mxGeometry>
        </mxCell>
        <mxCell id="_t1NfkofJrGaUivoqHSv-16" value="is b on" style="rhombus;whiteSpace=wrap;html=1;" parent="WIyWlLk6GJQsqaUBKTNV-1" vertex="1">
          <mxGeometry x="359" y="270" width="110" height="110" as="geometry" />
        </mxCell>
        <mxCell id="_t1NfkofJrGaUivoqHSv-17" value="no" style="text;html=1;align=center;verticalAlign=middle;resizable=0;points=[];autosize=1;strokeColor=none;fillColor=none;" parent="WIyWlLk6GJQsqaUBKTNV-1" vertex="1">
          <mxGeometry x="300" y="290" width="40" height="30" as="geometry" />
        </mxCell>
        <mxCell id="_t1NfkofJrGaUivoqHSv-25" value="yes" style="text;html=1;align=center;verticalAlign=middle;resizable=0;points=[];autosize=1;strokeColor=none;fillColor=none;" parent="WIyWlLk6GJQsqaUBKTNV-1" vertex="1">
          <mxGeometry x="370" y="398" width="40" height="30" as="geometry" />
        </mxCell>
        <mxCell id="wd_kDftiUYhndAeXtYSq-23" style="edgeStyle=orthogonalEdgeStyle;rounded=0;orthogonalLoop=1;jettySize=auto;html=1;entryX=0.5;entryY=0;entryDx=0;entryDy=0;" parent="WIyWlLk6GJQsqaUBKTNV-1" source="wd_kDftiUYhndAeXtYSq-19" target="wd_kDftiUYhndAeXtYSq-22" edge="1">
          <mxGeometry relative="1" as="geometry" />
        </mxCell>
        <mxCell id="wd_kDftiUYhndAeXtYSq-27" style="edgeStyle=orthogonalEdgeStyle;rounded=0;orthogonalLoop=1;jettySize=auto;html=1;exitX=0.5;exitY=1;exitDx=0;exitDy=0;entryX=0.5;entryY=0;entryDx=0;entryDy=0;" parent="WIyWlLk6GJQsqaUBKTNV-1" source="wd_kDftiUYhndAeXtYSq-19" target="wd_kDftiUYhndAeXtYSq-26" edge="1">
          <mxGeometry relative="1" as="geometry" />
        </mxCell>
        <mxCell id="wd_kDftiUYhndAeXtYSq-19" value="is c-in on" style="rhombus;whiteSpace=wrap;html=1;" parent="WIyWlLk6GJQsqaUBKTNV-1" vertex="1">
          <mxGeometry x="520" y="330" width="110" height="110" as="geometry" />
        </mxCell>
        <mxCell id="wd_kDftiUYhndAeXtYSq-21" value="no" style="text;html=1;align=center;verticalAlign=middle;resizable=0;points=[];autosize=1;strokeColor=none;fillColor=none;" parent="WIyWlLk6GJQsqaUBKTNV-1" vertex="1">
          <mxGeometry x="490" y="338" width="40" height="30" as="geometry" />
        </mxCell>
        <mxCell id="wd_kDftiUYhndAeXtYSq-22" value="End" style="rounded=1;whiteSpace=wrap;html=1;" parent="WIyWlLk6GJQsqaUBKTNV-1" vertex="1">
          <mxGeometry x="650" y="630" width="120" height="60" as="geometry" />
        </mxCell>
        <mxCell id="wd_kDftiUYhndAeXtYSq-25" value="no" style="text;html=1;align=center;verticalAlign=middle;resizable=0;points=[];autosize=1;strokeColor=none;fillColor=none;" parent="WIyWlLk6GJQsqaUBKTNV-1" vertex="1">
          <mxGeometry x="630" y="358" width="40" height="30" as="geometry" />
        </mxCell>
        <mxCell id="wd_kDftiUYhndAeXtYSq-39" style="edgeStyle=orthogonalEdgeStyle;rounded=0;orthogonalLoop=1;jettySize=auto;html=1;exitX=1;exitY=0.5;exitDx=0;exitDy=0;entryX=0.5;entryY=0;entryDx=0;entryDy=0;" parent="WIyWlLk6GJQsqaUBKTNV-1" source="wd_kDftiUYhndAeXtYSq-26" target="wd_kDftiUYhndAeXtYSq-22" edge="1">
          <mxGeometry relative="1" as="geometry" />
        </mxCell>
        <mxCell id="wd_kDftiUYhndAeXtYSq-26" value="turn sum on" style="whiteSpace=wrap;html=1;" parent="WIyWlLk6GJQsqaUBKTNV-1" vertex="1">
          <mxGeometry x="510" y="530" width="120" height="60" as="geometry" />
        </mxCell>
        <mxCell id="wd_kDftiUYhndAeXtYSq-28" value="yes" style="text;html=1;align=center;verticalAlign=middle;resizable=0;points=[];autosize=1;strokeColor=none;fillColor=none;" parent="WIyWlLk6GJQsqaUBKTNV-1" vertex="1">
          <mxGeometry x="540" y="468" width="40" height="30" as="geometry" />
        </mxCell>
        <mxCell id="wd_kDftiUYhndAeXtYSq-33" style="edgeStyle=orthogonalEdgeStyle;rounded=0;orthogonalLoop=1;jettySize=auto;html=1;entryX=0.5;entryY=0;entryDx=0;entryDy=0;" parent="WIyWlLk6GJQsqaUBKTNV-1" source="wd_kDftiUYhndAeXtYSq-32" target="wd_kDftiUYhndAeXtYSq-26" edge="1">
          <mxGeometry relative="1" as="geometry" />
        </mxCell>
        <mxCell id="wd_kDftiUYhndAeXtYSq-37" style="edgeStyle=orthogonalEdgeStyle;rounded=0;orthogonalLoop=1;jettySize=auto;html=1;" parent="WIyWlLk6GJQsqaUBKTNV-1" source="wd_kDftiUYhndAeXtYSq-32" target="wd_kDftiUYhndAeXtYSq-36" edge="1">
          <mxGeometry relative="1" as="geometry" />
        </mxCell>
        <mxCell id="wd_kDftiUYhndAeXtYSq-32" value="is c-in on" style="rhombus;whiteSpace=wrap;html=1;" parent="WIyWlLk6GJQsqaUBKTNV-1" vertex="1">
          <mxGeometry x="354" y="450" width="120" height="120" as="geometry" />
        </mxCell>
        <mxCell id="wd_kDftiUYhndAeXtYSq-34" value="no" style="text;html=1;align=center;verticalAlign=middle;resizable=0;points=[];autosize=1;strokeColor=none;fillColor=none;" parent="WIyWlLk6GJQsqaUBKTNV-1" vertex="1">
          <mxGeometry x="460" y="478" width="40" height="30" as="geometry" />
        </mxCell>
        <mxCell id="wd_kDftiUYhndAeXtYSq-40" style="edgeStyle=orthogonalEdgeStyle;rounded=0;orthogonalLoop=1;jettySize=auto;html=1;" parent="WIyWlLk6GJQsqaUBKTNV-1" source="wd_kDftiUYhndAeXtYSq-36" target="wd_kDftiUYhndAeXtYSq-22" edge="1">
          <mxGeometry relative="1" as="geometry" />
        </mxCell>
        <mxCell id="wd_kDftiUYhndAeXtYSq-36" value="turn carry on" style="whiteSpace=wrap;html=1;" parent="WIyWlLk6GJQsqaUBKTNV-1" vertex="1">
          <mxGeometry x="354" y="630" width="120" height="60" as="geometry" />
        </mxCell>
        <mxCell id="wd_kDftiUYhndAeXtYSq-38" value="yes" style="text;html=1;align=center;verticalAlign=middle;resizable=0;points=[];autosize=1;strokeColor=none;fillColor=none;" parent="WIyWlLk6GJQsqaUBKTNV-1" vertex="1">
          <mxGeometry x="410" y="598" width="40" height="30" as="geometry" />
        </mxCell>
        <mxCell id="wd_kDftiUYhndAeXtYSq-41" style="edgeStyle=orthogonalEdgeStyle;rounded=0;orthogonalLoop=1;jettySize=auto;html=1;entryX=0.058;entryY=0.533;entryDx=0;entryDy=0;entryPerimeter=0;" parent="WIyWlLk6GJQsqaUBKTNV-1" source="_t1NfkofJrGaUivoqHSv-7" target="wd_kDftiUYhndAeXtYSq-32" edge="1">
          <mxGeometry relative="1" as="geometry" />
        </mxCell>
        <mxCell id="wd_kDftiUYhndAeXtYSq-42" value="no" style="text;html=1;align=center;verticalAlign=middle;resizable=0;points=[];autosize=1;strokeColor=none;fillColor=none;" parent="WIyWlLk6GJQsqaUBKTNV-1" vertex="1">
          <mxGeometry x="270" y="418" width="40" height="30" as="geometry" />
        </mxCell>
        <mxCell id="wd_kDftiUYhndAeXtYSq-47" style="edgeStyle=orthogonalEdgeStyle;rounded=0;orthogonalLoop=1;jettySize=auto;html=1;exitX=1;exitY=0.5;exitDx=0;exitDy=0;entryX=0;entryY=0.25;entryDx=0;entryDy=0;" parent="WIyWlLk6GJQsqaUBKTNV-1" source="wd_kDftiUYhndAeXtYSq-43" target="wd_kDftiUYhndAeXtYSq-36" edge="1">
          <mxGeometry relative="1" as="geometry" />
        </mxCell>
        <mxCell id="wd_kDftiUYhndAeXtYSq-50" style="edgeStyle=orthogonalEdgeStyle;rounded=0;orthogonalLoop=1;jettySize=auto;html=1;exitX=0.5;exitY=1;exitDx=0;exitDy=0;" parent="WIyWlLk6GJQsqaUBKTNV-1" source="wd_kDftiUYhndAeXtYSq-43" target="wd_kDftiUYhndAeXtYSq-49" edge="1">
          <mxGeometry relative="1" as="geometry" />
        </mxCell>
        <mxCell id="wd_kDftiUYhndAeXtYSq-43" value="is c-in on" style="rhombus;whiteSpace=wrap;html=1;" parent="WIyWlLk6GJQsqaUBKTNV-1" vertex="1">
          <mxGeometry x="140" y="585" width="120" height="120" as="geometry" />
        </mxCell>
        <mxCell id="wd_kDftiUYhndAeXtYSq-46" value="yes" style="text;html=1;align=center;verticalAlign=middle;resizable=0;points=[];autosize=1;strokeColor=none;fillColor=none;" parent="WIyWlLk6GJQsqaUBKTNV-1" vertex="1">
          <mxGeometry x="200" y="538" width="40" height="30" as="geometry" />
        </mxCell>
        <mxCell id="wd_kDftiUYhndAeXtYSq-48" value="no" style="text;html=1;align=center;verticalAlign=middle;resizable=0;points=[];autosize=1;strokeColor=none;fillColor=none;" parent="WIyWlLk6GJQsqaUBKTNV-1" vertex="1">
          <mxGeometry x="280" y="608" width="40" height="30" as="geometry" />
        </mxCell>
        <mxCell id="wd_kDftiUYhndAeXtYSq-51" style="edgeStyle=orthogonalEdgeStyle;rounded=0;orthogonalLoop=1;jettySize=auto;html=1;exitX=1;exitY=0.5;exitDx=0;exitDy=0;entryX=0.5;entryY=1;entryDx=0;entryDy=0;" parent="WIyWlLk6GJQsqaUBKTNV-1" source="wd_kDftiUYhndAeXtYSq-49" target="wd_kDftiUYhndAeXtYSq-36" edge="1">
          <mxGeometry relative="1" as="geometry" />
        </mxCell>
        <mxCell id="wd_kDftiUYhndAeXtYSq-49" value="turn sum on" style="whiteSpace=wrap;html=1;" parent="WIyWlLk6GJQsqaUBKTNV-1" vertex="1">
          <mxGeometry x="240" y="760" width="120" height="60" as="geometry" />
        </mxCell>
        <mxCell id="wd_kDftiUYhndAeXtYSq-52" value="yes" style="text;html=1;align=center;verticalAlign=middle;resizable=0;points=[];autosize=1;strokeColor=none;fillColor=none;" parent="WIyWlLk6GJQsqaUBKTNV-1" vertex="1">
          <mxGeometry x="230" y="708" width="40" height="30" as="geometry" />
        </mxCell>
        <mxCell id="hGA9iaLCLG296x1-T0DJ-1" value="c-in" style="shape=parallelogram;perimeter=parallelogramPerimeter;whiteSpace=wrap;html=1;fixedSize=1;" vertex="1" parent="WIyWlLk6GJQsqaUBKTNV-1">
          <mxGeometry x="450" y="130" width="100" height="40" as="geometry" />
        </mxCell>
      </root>
    </mxGraphModel>
  </diagram>
</mxfile>
